<svg width="406" height="470" viewBox="0 0 406 470" fill="none" xmlns="http://www.w3.org/2000/svg">
<path d="M362.667 21.3333H42.6667C19.1025 21.3333 0 40.4358 0 63.9999V426.667C0 450.231 19.1025 469.333 42.6667 469.333H362.667C386.231 469.333 405.333 450.231 405.333 426.667V63.9999C405.333 40.4358 386.231 21.3333 362.667 21.3333Z" fill="#6D6AFF"/>
<path d="M42.6667 0H341.333C352.649 0 363.502 4.49523 371.503 12.4968C379.505 20.4983 384 31.3508 384 42.6667V362.667C384 373.983 379.505 384.835 371.503 392.837C363.502 400.838 352.649 405.333 341.333 405.333H0V42.6667C0 31.3508 4.49523 20.4983 12.4968 12.4968C20.4983 4.49523 31.3508 0 42.6667 0Z" fill="#6D6AFF"/>
<path d="M330.667 362.667H95.9999C90.1089 362.667 85.3333 367.442 85.3333 373.333C85.3333 379.224 90.1089 384 95.9999 384H330.667C336.558 384 341.333 379.224 341.333 373.333C341.333 367.442 336.558 362.667 330.667 362.667Z" fill="#7773FA"/>
<path d="M21.3334 42.6667H21.3333C9.55125 42.6667 0 52.218 0 64.0001V426.667C0 438.449 9.55125 448 21.3334 448C33.1154 448 42.6667 438.449 42.6667 426.667V64.0001C42.6667 52.218 33.1154 42.6667 21.3334 42.6667Z" fill="#5B57F0"/>
<path d="M21.3334 320H21.3333C9.55125 320 0 329.551 0 341.333V384C0 395.782 9.55125 405.333 21.3334 405.333C33.1154 405.333 42.6667 395.782 42.6667 384V341.333C42.6667 329.551 33.1154 320 21.3334 320Z" fill="#5B57F0"/>
<path d="M341.333 405.333H42.6666C37.0086 405.333 31.5824 407.581 27.5816 411.582C23.5809 415.583 21.3333 421.009 21.3333 426.667C21.3333 432.325 23.5809 437.751 27.5816 441.752C31.5824 445.752 37.0086 448 42.6666 448H341.333C352.649 448 363.502 443.505 371.503 435.503C379.505 427.502 384 416.649 384 405.333V362.667C384 373.983 379.505 384.835 371.503 392.837C363.501 400.838 352.649 405.333 341.333 405.333Z" fill="#EFF2FF"/>
<path d="M74.6667 21.3333H74.6667C68.7756 21.3333 64 26.1089 64 31.9999V394.667C64 400.558 68.7756 405.333 74.6667 405.333C80.5577 405.333 85.3333 400.558 85.3333 394.667V31.9999C85.3333 26.1089 80.5577 21.3333 74.6667 21.3333Z" fill="#5B57F0"/>
<path d="M95.9999 21.3333H95.9999C90.1089 21.3333 85.3333 26.1089 85.3333 31.9999V373.333C85.3333 379.224 90.1089 384 95.9999 384C101.891 384 106.667 379.224 106.667 373.333V31.9999C106.667 26.1089 101.891 21.3333 95.9999 21.3333Z" fill="#7773FA"/>
<path d="M396.383 428.057C395.074 427.558 393.679 427.322 392.278 427.363C390.877 427.403 389.498 427.72 388.22 428.294C386.942 428.868 385.79 429.689 384.829 430.709C383.868 431.729 383.119 432.929 382.622 434.24C381.071 438.277 378.335 441.752 374.774 444.208C371.213 446.663 366.992 447.985 362.667 448H42.6667C37.0087 448 31.5825 445.752 27.5817 441.752C23.581 437.751 21.3333 432.325 21.3333 426.667C21.3333 421.009 23.581 415.583 27.5817 411.582C31.5825 407.581 37.0087 405.333 42.6667 405.333H330.667C333.496 405.333 336.209 404.21 338.209 402.209C340.21 400.209 341.333 397.496 341.333 394.667C341.333 391.838 340.21 389.125 338.209 387.124C336.209 385.124 333.496 384 330.667 384H42.6667C31.3508 384 20.4983 388.495 12.4968 396.497C4.49523 404.498 0 415.351 0 426.667C0 437.983 4.49523 448.835 12.4968 456.837C20.4983 464.838 31.3508 469.333 42.6667 469.333H362.815C362.831 469.333 362.845 469.333 362.861 469.332H363.023L363.069 469.331H363.155C363.173 469.331 363.191 469.329 363.211 469.329H363.275L363.296 469.328H363.358C363.379 469.327 363.398 469.327 363.419 469.327H363.44C363.453 469.326 363.467 469.326 363.48 469.326H363.505C363.52 469.324 363.535 469.324 363.549 469.324H363.566C363.587 469.323 363.608 469.323 363.628 469.323L363.646 469.322H363.69C363.698 469.321 363.706 469.32 363.714 469.32C363.727 469.321 363.74 469.32 363.753 469.319H363.777C363.794 469.319 363.81 469.318 363.827 469.318H363.84C363.858 469.316 363.88 469.316 363.898 469.315H363.919L363.962 469.314L363.984 469.312C363.999 469.312 364.013 469.312 364.027 469.311H364.047C364.066 469.311 364.087 469.31 364.107 469.309H364.124C364.141 469.309 364.154 469.307 364.169 469.307L364.191 469.306L364.234 469.305H364.254C364.274 469.303 364.294 469.302 364.314 469.302H364.324C364.341 469.301 364.361 469.299 364.378 469.299L364.397 469.298L364.441 469.297L364.461 469.296C364.478 469.296 364.495 469.294 364.51 469.294L364.523 469.293C364.544 469.293 364.565 469.292 364.585 469.29H364.604C364.617 469.289 364.633 469.289 364.647 469.288C364.655 469.288 364.662 469.288 364.669 469.286L364.711 469.285L364.732 469.284C364.754 469.283 364.772 469.283 364.793 469.281H364.802C364.819 469.28 364.836 469.279 364.853 469.279C364.861 469.278 364.869 469.277 364.878 469.277L364.918 469.275L364.939 469.273C364.957 469.272 364.974 469.272 364.994 469.271H365L365.062 469.267L365.079 469.266C365.095 469.266 365.109 469.264 365.125 469.263L365.145 469.262C365.163 469.262 365.178 469.26 365.197 469.259H365.204L365.27 469.255L365.277 469.254C365.296 469.254 365.313 469.253 365.332 469.251L365.35 469.25L365.393 469.247L365.414 469.246L365.473 469.242H365.478L365.536 469.238L365.556 469.237C365.57 469.236 365.586 469.234 365.6 469.234L365.619 469.233L365.668 469.229L365.682 469.228L365.744 469.224L365.757 469.223C365.773 469.221 365.788 469.22 365.805 469.22L365.824 469.217L365.871 469.215L365.887 469.214C365.908 469.212 365.927 469.211 365.948 469.208H365.957L366.012 469.204L366.026 469.203L366.076 469.199L366.091 469.198C366.111 469.197 366.13 469.194 366.148 469.193H366.154C366.174 469.191 366.194 469.189 366.215 469.188L366.232 469.186L366.279 469.182L366.298 469.181L366.342 469.177L366.361 469.176C366.38 469.173 366.4 469.172 366.421 469.171L366.436 469.169L366.482 469.165L366.504 469.163L366.544 469.159L366.566 469.158C366.583 469.156 366.599 469.155 366.616 469.152L366.629 469.151C366.648 469.15 366.668 469.148 366.688 469.146L366.704 469.145L366.749 469.141L366.77 469.138L366.816 469.134L366.831 469.133C366.85 469.13 366.872 469.129 366.892 469.126L366.905 469.125L366.952 469.121C366.96 469.12 366.967 469.119 366.975 469.118L367.013 469.115L367.038 469.112C367.056 469.111 367.074 469.108 367.092 469.107L367.108 469.104L367.155 469.1C367.163 469.099 367.171 469.098 367.18 469.098L367.216 469.094C367.225 469.092 367.233 469.091 367.242 469.091L367.282 469.086L367.301 469.085C367.322 469.082 367.34 469.081 367.359 469.078L367.381 469.076L367.421 469.072C367.428 469.07 367.436 469.069 367.444 469.069C367.458 469.068 367.471 469.065 367.486 469.064L367.504 469.062L367.564 469.055L367.578 469.053L367.626 469.048L367.644 469.046L367.689 469.04L367.707 469.039C367.725 469.036 367.745 469.034 367.762 469.033L367.768 469.031L367.828 469.023L367.846 469.022C367.862 469.02 367.875 469.018 367.891 469.017L367.909 469.014C367.924 469.012 367.94 469.01 367.956 469.009L367.973 469.007L368.031 468.999L368.048 468.997C368.061 468.995 368.077 468.993 368.09 468.992L368.115 468.988C368.129 468.987 368.141 468.986 368.155 468.983L368.174 468.98C368.193 468.979 368.212 468.977 368.23 468.974L368.238 468.973L368.294 468.965C368.301 468.965 368.308 468.964 368.315 468.962C368.328 468.961 368.341 468.959 368.354 468.957L368.379 468.954C368.392 468.952 368.409 468.951 368.422 468.948L368.437 468.947C368.457 468.944 368.478 468.941 368.496 468.938L368.513 468.936L368.559 468.93L368.578 468.927L368.62 468.921L368.641 468.918L368.698 468.91L368.711 468.909L368.759 468.901C368.767 468.901 368.774 468.9 368.781 468.898C368.794 468.896 368.807 468.894 368.82 468.893L368.841 468.889C368.857 468.888 368.871 468.885 368.887 468.883L368.902 468.88L368.961 468.872L368.979 468.87C368.993 468.867 369.006 468.866 369.02 468.863L369.044 468.859L369.083 468.854L369.104 468.85L369.161 468.842L369.181 468.839L369.221 468.833L369.242 468.829C369.256 468.827 369.271 468.826 369.284 468.823L369.305 468.82C369.342 468.814 369.384 468.807 369.423 468.801L369.443 468.798C369.456 468.796 369.47 468.794 369.484 468.792L369.505 468.788L369.547 468.781L369.565 468.779C369.585 468.775 369.604 468.772 369.624 468.768L369.643 468.766C369.655 468.763 369.669 468.762 369.681 468.759L369.707 468.755L369.746 468.749L369.766 468.745L369.815 468.737L369.84 468.733L369.883 468.725L369.908 468.721L369.941 468.716C369.95 468.714 369.959 468.712 369.967 468.711C369.979 468.708 369.995 468.706 370.006 468.704L370.026 468.701C370.045 468.698 370.064 468.694 370.083 468.691L370.104 468.688C370.117 468.685 370.13 468.682 370.142 468.681L370.165 468.676C370.178 468.674 370.191 468.672 370.203 468.669L370.226 468.665C370.245 468.663 370.264 468.659 370.281 468.655L370.303 468.651C370.315 468.65 370.328 468.647 370.341 468.645L370.366 468.641C370.378 468.638 370.391 468.636 370.404 468.634L370.426 468.629L370.467 468.621L370.486 468.618C370.505 468.615 370.523 468.612 370.542 468.608L370.561 468.604L370.601 468.596L370.625 468.592L370.661 468.585L370.684 468.581L370.738 468.57L370.764 468.566L370.798 468.559L370.824 468.555L370.859 468.547L370.883 468.543C370.897 468.54 370.911 468.538 370.927 468.534C370.936 468.533 370.944 468.531 370.953 468.529L370.997 468.521L371.021 468.516C371.034 468.513 371.044 468.51 371.056 468.509L371.081 468.504L371.116 468.496C371.124 468.495 371.133 468.493 371.142 468.491C371.159 468.488 371.176 468.484 371.194 468.48L371.224 468.475C371.232 468.473 371.241 468.471 371.25 468.47L371.284 468.462C371.292 468.461 371.299 468.459 371.307 468.457C371.318 468.455 371.33 468.453 371.341 468.451L371.373 468.444C371.388 468.441 371.403 468.437 371.419 468.435C371.429 468.432 371.439 468.43 371.449 468.428L371.479 468.422C371.489 468.42 371.498 468.418 371.508 468.415L371.538 468.41L371.573 468.402C371.58 468.401 371.587 468.399 371.594 468.397C371.612 468.395 371.631 468.389 371.648 468.387L371.674 468.38L371.707 468.374L371.734 468.367C371.745 468.366 371.756 468.363 371.767 468.361L371.791 468.355C371.808 468.352 371.829 468.346 371.846 468.344L371.866 468.339L371.905 468.331L371.929 468.326C371.941 468.322 371.952 468.32 371.963 468.318L371.988 468.312C372.001 468.309 372.013 468.306 372.026 468.303L372.06 468.296C372.074 468.293 372.088 468.289 372.101 468.286L372.125 468.281L372.159 468.273L372.185 468.267L372.222 468.259L372.243 468.254L372.297 468.242L372.321 468.236L372.355 468.228L372.38 468.223L372.415 468.215L372.44 468.208L372.489 468.197L372.508 468.193C372.523 468.189 372.537 468.186 372.552 468.182L372.574 468.177L372.613 468.168C372.62 468.165 372.627 468.164 372.634 468.163C372.647 468.16 372.661 468.156 372.674 468.152L372.692 468.148C372.711 468.145 372.729 468.139 372.747 468.135L372.769 468.13L372.804 468.121C372.814 468.12 372.823 468.117 372.832 468.115L372.864 468.107C372.872 468.104 372.88 468.103 372.888 468.102C372.906 468.096 372.924 468.092 372.942 468.087L372.962 468.083L373.001 468.073L373.026 468.066L373.056 468.06L373.084 468.052L373.117 468.044C373.129 468.041 373.141 468.038 373.153 468.035C373.166 468.031 373.181 468.027 373.194 468.025L373.222 468.017L373.25 468.01L373.281 468.003L373.306 467.996L373.338 467.988C373.355 467.983 373.372 467.979 373.389 467.974C373.397 467.972 373.406 467.97 373.414 467.967C373.424 467.965 373.433 467.964 373.445 467.96L373.475 467.952C373.484 467.95 373.493 467.948 373.502 467.945L373.532 467.938L373.56 467.93C373.577 467.926 373.592 467.922 373.609 467.917L373.639 467.909L373.668 467.901C373.677 467.898 373.686 467.896 373.695 467.895C373.706 467.891 373.716 467.889 373.725 467.885C373.735 467.884 373.745 467.881 373.755 467.878L373.781 467.871C373.799 467.866 373.815 467.862 373.832 467.857L373.863 467.849L373.889 467.842C373.899 467.839 373.91 467.836 373.92 467.833L373.945 467.827C373.955 467.825 373.965 467.822 373.975 467.818L374.008 467.81C374.023 467.805 374.037 467.801 374.053 467.797L374.083 467.789L374.11 467.781C374.121 467.778 374.131 467.775 374.142 467.772L374.166 467.766L374.203 467.755C374.215 467.753 374.224 467.749 374.235 467.746L374.276 467.734C374.286 467.732 374.297 467.729 374.307 467.725C374.315 467.724 374.323 467.722 374.33 467.719C374.341 467.716 374.352 467.713 374.363 467.71L374.388 467.703L374.419 467.694L374.44 467.688C374.461 467.682 374.479 467.677 374.5 467.671L374.524 467.664L374.554 467.655L374.58 467.647C374.591 467.645 374.601 467.642 374.612 467.638L374.636 467.632C374.655 467.626 374.67 467.621 374.687 467.616L374.716 467.608L374.746 467.599L374.773 467.591C374.783 467.589 374.793 467.586 374.803 467.582L374.829 467.574L374.859 467.566L374.908 467.551L374.933 467.543L374.967 467.534L374.992 467.526L375.023 467.517L375.049 467.508L375.079 467.5L375.128 467.484C375.138 467.482 375.148 467.478 375.156 467.477L375.187 467.466C375.195 467.465 375.203 467.462 375.211 467.46L375.242 467.449L375.265 467.443C375.289 467.435 375.315 467.427 375.339 467.419L375.345 467.418L375.382 467.406L375.399 467.401L375.434 467.389L375.454 467.384L375.489 467.372L375.5 467.37C375.524 467.362 375.546 467.354 375.571 467.346L375.591 467.341C375.602 467.337 375.613 467.333 375.623 467.331L375.649 467.322L375.678 467.313L375.708 467.303L375.744 467.292L375.783 467.279C375.793 467.276 375.803 467.273 375.812 467.27L375.838 467.262L375.869 467.251L375.893 467.244L375.923 467.233L375.962 467.221C375.975 467.216 375.988 467.212 376.002 467.208L376.028 467.199L376.057 467.19C376.075 467.184 376.093 467.178 376.111 467.172L376.145 467.16L376.186 467.147C376.196 467.143 376.206 467.14 376.217 467.137C376.227 467.133 376.238 467.13 376.247 467.126L376.272 467.119L376.302 467.108L376.325 467.1C376.35 467.091 376.372 467.085 376.398 467.076L376.406 467.073C376.415 467.069 376.425 467.067 376.436 467.063L376.462 467.053L376.489 467.044C376.499 467.041 376.509 467.038 376.519 467.034L376.545 467.025C376.554 467.021 376.564 467.018 376.574 467.016L376.623 466.997L376.649 466.99L376.678 466.979L376.705 466.97L376.734 466.96L376.757 466.952C376.778 466.944 376.796 466.938 376.817 466.931L376.835 466.925L376.868 466.913C376.876 466.91 376.884 466.907 376.891 466.904C376.902 466.901 376.912 466.897 376.923 466.893L376.945 466.886L376.977 466.874L376.993 466.869C377.014 466.861 377.035 466.853 377.055 466.846C377.063 466.844 377.071 466.841 377.078 466.837L377.11 466.827L377.132 466.818L377.163 466.807C377.172 466.805 377.179 466.802 377.187 466.798L377.243 466.779L377.265 466.77L377.299 466.758L377.317 466.751C377.33 466.746 377.341 466.742 377.354 466.738L377.369 466.732C377.407 466.719 377.447 466.703 377.486 466.689L377.505 466.682C377.516 466.678 377.528 466.673 377.539 466.669L377.558 466.663L377.592 466.65L377.611 466.642C377.631 466.636 377.652 466.628 377.671 466.62L377.691 466.612L377.725 466.6L377.746 466.593C377.757 466.587 377.768 466.583 377.779 466.58L377.794 466.574C377.821 466.564 377.85 466.552 377.877 466.542C377.889 466.538 377.9 466.534 377.911 466.529C377.918 466.527 377.925 466.524 377.932 466.521L377.963 466.509L377.985 466.5C377.996 466.497 378.006 466.493 378.016 466.488L378.036 466.481C378.058 466.473 378.079 466.465 378.101 466.456L378.115 466.451C378.127 466.445 378.14 466.442 378.152 466.436L378.167 466.43L378.203 466.417L378.218 466.41C378.243 466.4 378.268 466.391 378.294 466.38L378.3 466.378C378.312 466.374 378.325 466.369 378.337 466.363L378.354 466.357C378.365 466.352 378.376 466.349 378.387 466.344L378.407 466.336L378.524 466.289L378.537 466.284C378.549 466.279 378.561 466.275 378.574 466.27L378.591 466.263C378.602 466.258 378.614 466.253 378.626 466.249L378.636 466.244C378.661 466.235 378.686 466.224 378.71 466.214L378.722 466.21C378.732 466.205 378.746 466.199 378.756 466.196L378.775 466.188L378.811 466.173L378.822 466.168C378.861 466.153 378.903 466.136 378.942 466.119L378.958 466.112L378.996 466.097L379.005 466.094C379.048 466.076 379.092 466.058 379.135 466.039L379.14 466.037C379.154 466.031 379.167 466.025 379.182 466.02L379.188 466.017C379.247 465.992 379.307 465.966 379.365 465.942L379.373 465.939C379.386 465.933 379.399 465.927 379.413 465.921L379.423 465.917C379.466 465.899 379.507 465.88 379.552 465.862L379.555 465.86C379.569 465.855 379.583 465.849 379.596 465.843L379.606 465.839C379.621 465.832 379.634 465.827 379.647 465.821H379.648L379.781 465.762L379.788 465.759C379.801 465.753 379.816 465.748 379.829 465.741L379.837 465.737C379.878 465.719 379.921 465.701 379.963 465.683L379.971 465.679C379.984 465.673 379.997 465.667 380.01 465.66L380.022 465.656L380.059 465.638L380.065 465.637C380.092 465.624 380.119 465.612 380.145 465.6L380.153 465.597L380.192 465.58L380.203 465.574L380.24 465.558L380.251 465.552C380.291 465.534 380.333 465.516 380.372 465.498L380.385 465.492C380.397 465.486 380.408 465.481 380.42 465.475L380.434 465.469C380.473 465.451 380.515 465.432 380.555 465.414L380.565 465.409L380.598 465.393C380.605 465.391 380.611 465.388 380.617 465.384C380.63 465.379 380.64 465.374 380.652 465.369L380.657 465.366L380.782 465.307L380.794 465.302C380.807 465.296 380.82 465.291 380.831 465.284L380.842 465.28C380.881 465.261 380.919 465.242 380.959 465.224L380.975 465.216C380.986 465.211 380.998 465.206 381.01 465.199L381.023 465.194L381.061 465.176L381.062 465.175C381.092 465.16 381.122 465.146 381.15 465.133V465.132C381.164 465.126 381.178 465.12 381.191 465.113L381.201 465.108C381.213 465.102 381.225 465.097 381.238 465.09L381.251 465.084C381.29 465.065 381.329 465.046 381.367 465.028L381.38 465.021C381.393 465.016 381.403 465.009 381.415 465.004L381.43 464.996C381.469 464.977 381.507 464.959 381.546 464.939L381.558 464.934C381.57 464.929 381.581 464.922 381.592 464.917L381.609 464.909C381.619 464.903 381.632 464.897 381.643 464.892L381.656 464.886L381.734 464.847L381.735 464.845L381.77 464.828L381.784 464.821C381.796 464.815 381.809 464.809 381.821 464.802L381.83 464.798L381.951 464.736L381.96 464.732L381.998 464.712L382.008 464.707C382.021 464.701 382.033 464.696 382.046 464.688L382.051 464.685C382.093 464.664 382.135 464.643 382.176 464.621L382.183 464.617L382.222 464.598L382.231 464.593C382.273 464.572 382.313 464.551 382.355 464.529L382.36 464.526C382.372 464.519 382.384 464.513 382.396 464.508L382.411 464.5C382.465 464.472 382.52 464.443 382.575 464.413L382.583 464.409C382.639 464.38 382.695 464.35 382.751 464.321L382.757 464.317L382.799 464.294C382.857 464.263 382.916 464.232 382.975 464.199H382.976C383.033 464.168 383.089 464.137 383.146 464.106L383.153 464.103C383.166 464.095 383.179 464.088 383.192 464.081L383.197 464.078C383.24 464.055 383.281 464.031 383.324 464.008L383.325 464.007C383.339 464 383.352 463.993 383.365 463.985L383.372 463.982C383.428 463.949 383.482 463.92 383.538 463.888L383.545 463.884C383.559 463.877 383.572 463.87 383.585 463.862L383.587 463.861C383.63 463.837 383.673 463.813 383.714 463.789L383.717 463.788C383.731 463.78 383.744 463.772 383.757 463.765L383.764 463.761C383.82 463.729 383.874 463.697 383.93 463.666L383.934 463.663C383.949 463.655 383.962 463.647 383.975 463.64L383.977 463.638C384.019 463.615 384.062 463.59 384.102 463.565L384.106 463.564C384.119 463.556 384.132 463.548 384.146 463.541L384.152 463.537L384.317 463.44L384.324 463.436C384.377 463.405 384.43 463.373 384.484 463.341L384.497 463.334C384.508 463.327 384.52 463.319 384.531 463.313L384.54 463.308L384.657 463.237L384.663 463.233L384.702 463.21L384.708 463.207C384.762 463.173 384.817 463.14 384.872 463.107L384.877 463.104L385.044 463.002C385.058 462.992 385.072 462.985 385.085 462.976L385.088 462.974C385.326 462.826 385.563 462.676 385.799 462.524L385.803 462.522L385.842 462.496L385.844 462.495C385.955 462.424 386.064 462.352 386.174 462.279L386.176 462.278C386.48 462.077 386.779 461.873 387.079 461.664V461.663C387.133 461.625 387.187 461.588 387.242 461.55C394.199 456.643 399.534 449.772 402.564 441.817C403.569 439.172 403.483 436.237 402.323 433.657C401.164 431.076 399.027 429.062 396.383 428.057Z" fill="#5B57F0"/>
<path d="M405.333 53.3334C405.333 47.4424 400.558 42.6667 394.667 42.6667C388.776 42.6667 384 47.4424 384 53.3334V373.333C384 379.224 388.776 384 394.667 384C400.558 384 405.333 379.224 405.333 373.333V53.3334Z" fill="#5B57F0"/>
<path d="M352 405.333H53.3334C47.4424 405.333 42.6667 410.109 42.6667 416C42.6667 421.891 47.4424 426.667 53.3334 426.667H352C357.891 426.667 362.667 421.891 362.667 416C362.667 410.109 357.891 405.333 352 405.333Z" fill="#CCD4FF"/>
<path d="M256 64H170.667C158.885 64 149.333 73.5513 149.333 85.3333V85.3334C149.333 97.1154 158.885 106.667 170.667 106.667H256C267.782 106.667 277.333 97.1154 277.333 85.3333C277.333 73.5513 267.782 64 256 64Z" fill="#FFD700"/>
<path d="M192 64H192C180.218 64 170.667 73.5513 170.667 85.3333V85.3334C170.667 97.1154 180.218 106.667 192 106.667H192C203.782 106.667 213.333 97.1154 213.333 85.3334V85.3333C213.333 73.5513 203.782 64 192 64Z" fill="#FFA300"/>
<path d="M320 149.333H170.667C158.885 149.333 149.333 158.885 149.333 170.667V170.667C149.333 182.449 158.885 192 170.667 192H320C331.782 192 341.333 182.449 341.333 170.667C341.333 158.885 331.782 149.333 320 149.333Z" fill="#FFD700"/>
<path d="M256 149.333H213.333C201.551 149.333 192 158.885 192 170.667V170.667C192 182.449 201.551 192 213.333 192H256C267.782 192 277.333 182.449 277.333 170.667C277.333 158.885 267.782 149.333 256 149.333Z" fill="#FFA300"/>
<path d="M330.667 298.667H288C282.109 298.667 277.333 303.442 277.333 309.333C277.333 315.224 282.109 320 288 320H330.667C336.558 320 341.333 315.224 341.333 309.333C341.333 303.442 336.558 298.667 330.667 298.667Z" fill="#FFD700"/>
</svg>
