<svg width="512" height="512" viewBox="0 0 512 512" fill="none" xmlns="http://www.w3.org/2000/svg">
<path d="M0 255.998C0 114.607 114.613 0 256.002 0C397.387 0 512 114.607 512 255.998C512 397.388 397.387 512 256.002 512C114.613 512 0 397.388 0 255.998Z" fill="#5B57F0"/>
<mask id="mask0_3_2079" style="mask-type:luminance" maskUnits="userSpaceOnUse" x="0" y="0" width="512" height="512">
<path d="M0 255.996C0 114.607 114.613 0 256.002 0C397.387 0 512 114.607 512 255.996C512 397.389 397.387 512 256.002 512C114.613 512 0 397.389 0 255.996Z" fill="white"/>
</mask>
<g mask="url(#mask0_3_2079)">
<path d="M197.011 265.974C203.572 281.511 199.999 296.612 189.032 299.704C178.063 302.796 163.858 292.707 157.298 277.172C150.737 261.635 154.31 246.533 165.277 243.442C176.244 240.351 190.452 250.439 197.011 265.974Z" fill="#E38A5B"/>
<path d="M330.556 265.974C323.996 281.511 327.57 296.612 338.536 299.704C349.503 302.796 363.71 292.707 370.268 277.172C376.83 261.635 373.258 246.533 362.29 243.442C351.325 240.349 337.116 250.439 330.556 265.974Z" fill="#E38A5B"/>
</g>
<mask id="mask1_3_2079" style="mask-type:luminance" maskUnits="userSpaceOnUse" x="0" y="0" width="512" height="512">
<path d="M0 255.996C0 114.607 114.613 0 256.002 0C397.387 0 512 114.607 512 255.996C512 397.389 397.387 512 256.002 512C114.613 512 0 397.389 0 255.996Z" fill="white"/>
</mask>
<g mask="url(#mask1_3_2079)">
<path d="M449.386 545.884L449.333 545.042C449.333 493.837 430.165 444.226 406.761 434.778L307.081 394.62C283.675 385.181 245.344 385.143 221.933 394.508L120.827 434.904C97.402 444.282 78.234 493.837 78.234 545.042L78.182 545.884H449.386Z" fill="#E38A5B"/>
</g>
<mask id="mask2_3_2079" style="mask-type:luminance" maskUnits="userSpaceOnUse" x="0" y="0" width="512" height="512">
<path d="M0 255.996C0 114.607 114.613 0 256.002 0C397.387 0 512 114.607 512 255.996C512 397.389 397.387 512 256.002 512C114.613 512 0 397.389 0 255.996Z" fill="white"/>
</mask>
<g mask="url(#mask2_3_2079)">
<path d="M305.996 397.085C305.996 419.066 288.178 436.885 266.197 436.885H261.371C239.39 436.885 221.572 419.067 221.572 397.085V294.57C221.572 272.59 239.39 254.77 261.371 254.77H266.197C288.177 254.77 305.996 272.589 305.996 294.57V397.085Z" fill="#E38A5B"/>
</g>
<mask id="mask3_3_2079" style="mask-type:luminance" maskUnits="userSpaceOnUse" x="0" y="0" width="512" height="512">
<path d="M0 255.996C0 114.607 114.613 0 256.002 0C397.387 0 512 114.607 512 255.996C512 397.389 397.387 512 256.002 512C114.613 512 0 397.389 0 255.996Z" fill="white"/>
</mask>
<g mask="url(#mask3_3_2079)">
<path d="M349.437 291.733C349.437 328.575 319.575 358.435 282.733 358.435H244.829C207.992 358.435 178.13 328.575 178.13 291.733V182.586C178.13 145.749 207.992 115.884 244.829 115.884H282.733C319.575 115.884 349.437 145.749 349.437 182.586V291.733Z" fill="#F5B68C"/>
</g>
<mask id="mask4_3_2079" style="mask-type:luminance" maskUnits="userSpaceOnUse" x="0" y="0" width="512" height="512">
<path d="M0 255.996C0 114.607 114.613 0 256.002 0C397.387 0 512 114.607 512 255.996C512 397.389 397.387 512 256.002 512C114.613 512 0 397.389 0 255.996Z" fill="white"/>
</mask>
<g mask="url(#mask4_3_2079)">
<path d="M230.942 275.884C236.412 275.884 240.846 271.45 240.846 265.98C240.846 260.51 236.412 256.076 230.942 256.076C225.472 256.076 221.038 260.51 221.038 265.98C221.038 271.45 225.472 275.884 230.942 275.884Z" fill="#5B57F0"/>
<path d="M296.625 275.884C302.095 275.884 306.529 271.45 306.529 265.98C306.529 260.51 302.095 256.076 296.625 256.076C291.155 256.076 286.721 260.51 286.721 265.98C286.721 271.45 291.155 275.884 296.625 275.884Z" fill="#5B57F0"/>
</g>
<mask id="mask5_3_2079" style="mask-type:luminance" maskUnits="userSpaceOnUse" x="0" y="0" width="512" height="512">
<path d="M0 255.996C0 114.607 114.613 0 256.002 0C397.387 0 512 114.607 512 255.996C512 397.389 397.387 512 256.002 512C114.613 512 0 397.389 0 255.996Z" fill="white"/>
</mask>
<g mask="url(#mask5_3_2079)">
<path d="M263.784 102.076C208.252 102.076 163.234 150.868 163.234 211.06C163.234 231.049 168.203 249.777 176.869 265.884L186.858 181.16L340.692 181.153L350.7 265.882C359.364 249.777 364.333 231.049 364.333 211.06C364.333 150.868 319.316 102.076 263.784 102.076Z" fill="#A14B2A"/>
</g>
<mask id="mask6_3_2079" style="mask-type:luminance" maskUnits="userSpaceOnUse" x="0" y="0" width="512" height="512">
<path d="M0 255.996C0 114.607 114.613 0 256.002 0C397.387 0 512 114.607 512 255.996C512 397.389 397.387 512 256.002 512C114.613 512 0 397.389 0 255.996Z" fill="white"/>
</mask>
<g mask="url(#mask6_3_2079)">
<path d="M277.957 279.542C277.508 287.437 270.91 293.699 262.755 293.699C255.847 293.699 250.077 289.18 248.179 282.987C247.755 284.439 247.447 285.95 247.447 287.533C247.447 296.561 254.774 303.886 263.786 303.886C272.821 303.886 280.121 296.561 280.121 287.533C280.121 284.607 279.302 281.915 277.957 279.542Z" fill="#E38A5B"/>
</g>
<mask id="mask7_3_2079" style="mask-type:luminance" maskUnits="userSpaceOnUse" x="0" y="0" width="512" height="512">
<path d="M0 255.996C0 114.607 114.613 0 256.002 0C397.387 0 512 114.607 512 255.996C512 397.389 397.387 512 256.002 512C114.613 512 0 397.389 0 255.996Z" fill="white"/>
</mask>
<g mask="url(#mask7_3_2079)">
<path d="M449.333 545.043C449.333 493.838 430.165 444.227 406.761 434.779L327.506 402.849C316.487 427.05 292.109 443.884 263.784 443.884C235.59 443.884 211.305 427.206 200.214 403.186L120.827 434.905C97.402 444.283 78.234 493.838 78.234 545.043L78.182 545.885H449.386L449.333 545.043Z" fill="#FFD700"/>
</g>
<mask id="mask8_3_2079" style="mask-type:luminance" maskUnits="userSpaceOnUse" x="0" y="0" width="512" height="512">
<path d="M0 255.996C0 114.607 114.613 0 256.002 0C397.387 0 512 114.607 512 255.996C512 397.389 397.387 512 256.002 512C114.613 512 0 397.389 0 255.996Z" fill="white"/>
</mask>
<g mask="url(#mask8_3_2079)">
<path d="M318.784 305.884C329.83 305.884 338.784 299.168 338.784 290.884C338.784 282.6 329.83 275.884 318.784 275.884C307.738 275.884 298.784 282.6 298.784 290.884C298.784 299.168 307.738 305.884 318.784 305.884Z" fill="#EB987F"/>
<path d="M208.784 305.884C219.83 305.884 228.784 299.168 228.784 290.884C228.784 282.6 219.83 275.884 208.784 275.884C197.738 275.884 188.784 282.6 188.784 290.884C188.784 299.168 197.738 305.884 208.784 305.884Z" fill="#EB987F"/>
</g>
<mask id="mask9_3_2079" style="mask-type:luminance" maskUnits="userSpaceOnUse" x="0" y="0" width="512" height="512">
<path d="M0 255.996C0 114.607 114.613 0 256.002 0C397.387 0 512 114.607 512 255.996C512 397.389 397.387 512 256.002 512C114.613 512 0 397.389 0 255.996Z" fill="white"/>
</mask>
<g mask="url(#mask9_3_2079)">
<path d="M207.582 248.571C215.542 239.816 226.743 235.913 238.4 235.727C244.198 235.635 244.207 226.635 238.4 226.727C224.489 226.948 210.729 231.746 201.217 242.207C197.324 246.49 203.67 252.874 207.582 248.571Z" fill="#A14B2A"/>
<path d="M321.582 242.207C312.071 231.746 298.312 226.948 284.4 226.727C278.593 226.635 278.602 235.635 284.4 235.727C296.057 235.913 307.257 239.816 315.217 248.571C319.13 252.874 325.477 246.49 321.582 242.207Z" fill="#A14B2A"/>
</g>
<mask id="mask10_3_2079" style="mask-type:luminance" maskUnits="userSpaceOnUse" x="0" y="0" width="512" height="512">
<path d="M0 255.996C0 114.607 114.613 0 256.002 0C397.387 0 512 114.607 512 255.996C512 397.389 397.387 512 256.002 512C114.613 512 0 397.389 0 255.996Z" fill="white"/>
</mask>
<g mask="url(#mask10_3_2079)">
<path d="M285.996 312.35C274.822 322.87 255.654 322.87 244.478 312.35C236.599 304.932 224.697 316.79 232.599 324.23C250.538 341.117 279.937 341.117 297.874 324.23C305.779 316.79 293.877 304.932 285.996 312.35Z" fill="white"/>
</g>
<circle cx="230.5" cy="265.5" r="10.5" fill="#303030"/>
<circle cx="296.5" cy="265.5" r="10.5" fill="#303030"/>
</svg>
